<svg xmlns="http://www.w3.org/2000/svg" viewBox="0 0 1200 1500" width="1200" height="1500">
<defs>
<linearGradient id="pipeBody" gradientUnits="userSpaceOnUse" x1="0" y1="450" x2="0" y2="1200">
  <stop offset="0" stop-color="#D4B98B" stop-opacity=".96"/><stop offset=".40" stop-color="#C6A56A" stop-opacity=".76"/><stop offset="1" stop-color="#A6864A" stop-opacity=".40"/>
</linearGradient>
<linearGradient id="pipeFoot" gradientUnits="userSpaceOnUse" x1="0" y1="1040" x2="0" y2="1240">
  <stop offset="0" stop-color="#C6A56A" stop-opacity=".62"/><stop offset="1" stop-color="#A6864A" stop-opacity=".30"/>
</linearGradient>
<linearGradient id="daylight" gradientUnits="userSpaceOnUse" x1="120" y1="350" x2="1080" y2="1400">
  <stop offset="0" stop-color="#fff" stop-opacity=".07"/><stop offset=".45" stop-color="#fff" stop-opacity="0"/><stop offset="1" stop-color="#000" stop-opacity=".26"/>
</linearGradient>
<linearGradient id="railG" gradientUnits="userSpaceOnUse" x1="150" y1="0" x2="1050" y2="0">
  <stop offset="0" stop-color="#C6A56A" stop-opacity="0"/><stop offset=".18" stop-color="#C6A56A" stop-opacity=".55"/><stop offset=".5" stop-color="#D4B98B" stop-opacity=".7"/><stop offset=".82" stop-color="#C6A56A" stop-opacity=".4"/><stop offset="1" stop-color="#C6A56A" stop-opacity="0"/>
</linearGradient>
<linearGradient id="railShadow" gradientUnits="userSpaceOnUse" x1="0" y1="1200" x2="0" y2="1230">
  <stop offset="0" stop-color="#A6864A" stop-opacity=".09"/><stop offset="1" stop-color="#A6864A" stop-opacity="0"/>
</linearGradient>
<radialGradient id="glow" gradientUnits="userSpaceOnUse" cx="600" cy="800" r="600">
  <stop offset="0" stop-color="#C6A56A" stop-opacity=".10"/><stop offset="1" stop-color="#C6A56A" stop-opacity="0"/>
</radialGradient>
<radialGradient id="vignette" gradientUnits="userSpaceOnUse" cx="600" cy="750" r="900">
  <stop offset=".45" stop-color="#000" stop-opacity="0"/><stop offset="1" stop-color="#000" stop-opacity=".62"/>
</radialGradient>
<filter id="grain" x="0" y="0" width="100%" height="100%"><feTurbulence type="fractalNoise" baseFrequency="0.9" numOctaves="3" stitchTiles="stitch"/><feColorMatrix type="saturate" values="0"/></filter>
<linearGradient id="touche" gradientUnits="userSpaceOnUse" x1="0" y1="0" x2="0" y2="1"><stop offset="0" stop-color="#D4B98B" stop-opacity=".95"/><stop offset="1" stop-color="#C6A56A" stop-opacity=".7"/></linearGradient><linearGradient id="feintes" gradientUnits="userSpaceOnUse" x1="0" y1="0" x2="0" y2="1"><stop offset="0" stop-color="#1A1A1C"/><stop offset="1" stop-color="#050506"/></linearGradient>
</defs>
<rect width="1200" height="1500" fill="#0B0B0C"/>
<rect width="1200" height="1500" fill="url(#glow)"/>

<g><rect x="191.5" y="560" width="51.7" height="280" rx="4" fill="url(#touche)" opacity=".92"/><rect x="191.5" y="828" width="51.7" height="12" rx="3" fill="#000" opacity=".25"/><rect x="246.2" y="560" width="51.7" height="280" rx="4" fill="url(#touche)" opacity=".92"/><rect x="246.2" y="828" width="51.7" height="12" rx="3" fill="#000" opacity=".25"/><rect x="300.8" y="560" width="51.7" height="280" rx="4" fill="url(#touche)" opacity=".92"/><rect x="300.8" y="828" width="51.7" height="12" rx="3" fill="#000" opacity=".25"/><rect x="355.5" y="560" width="51.7" height="280" rx="4" fill="url(#touche)" opacity=".92"/><rect x="355.5" y="828" width="51.7" height="12" rx="3" fill="#000" opacity=".25"/><rect x="410.2" y="560" width="51.7" height="280" rx="4" fill="url(#touche)" opacity=".92"/><rect x="410.2" y="828" width="51.7" height="12" rx="3" fill="#000" opacity=".25"/><rect x="464.8" y="560" width="51.7" height="280" rx="4" fill="url(#touche)" opacity=".92"/><rect x="464.8" y="828" width="51.7" height="12" rx="3" fill="#000" opacity=".25"/><rect x="519.5" y="560" width="51.7" height="280" rx="4" fill="url(#touche)" opacity=".92"/><rect x="519.5" y="828" width="51.7" height="12" rx="3" fill="#000" opacity=".25"/><rect x="574.2" y="560" width="51.7" height="280" rx="4" fill="url(#touche)" opacity=".92"/><rect x="574.2" y="828" width="51.7" height="12" rx="3" fill="#000" opacity=".25"/><rect x="628.8" y="560" width="51.7" height="280" rx="4" fill="url(#touche)" opacity=".92"/><rect x="628.8" y="828" width="51.7" height="12" rx="3" fill="#000" opacity=".25"/><rect x="683.5" y="560" width="51.7" height="280" rx="4" fill="url(#touche)" opacity=".92"/><rect x="683.5" y="828" width="51.7" height="12" rx="3" fill="#000" opacity=".25"/><rect x="738.2" y="560" width="51.7" height="280" rx="4" fill="url(#touche)" opacity=".92"/><rect x="738.2" y="828" width="51.7" height="12" rx="3" fill="#000" opacity=".25"/><rect x="792.8" y="560" width="51.7" height="280" rx="4" fill="url(#touche)" opacity=".92"/><rect x="792.8" y="828" width="51.7" height="12" rx="3" fill="#000" opacity=".25"/><rect x="847.5" y="560" width="51.7" height="280" rx="4" fill="url(#touche)" opacity=".92"/><rect x="847.5" y="828" width="51.7" height="12" rx="3" fill="#000" opacity=".25"/><rect x="902.2" y="560" width="51.7" height="280" rx="4" fill="url(#touche)" opacity=".92"/><rect x="902.2" y="828" width="51.7" height="12" rx="3" fill="#000" opacity=".25"/><rect x="956.8" y="560" width="51.7" height="280" rx="4" fill="url(#touche)" opacity=".92"/><rect x="956.8" y="828" width="51.7" height="12" rx="3" fill="#000" opacity=".25"/><rect x="227.2" y="558" width="35.0" height="168.0" rx="3" fill="url(#feintes)"/><rect x="229.2" y="560" width="31.0" height="2" fill="#C6A56A" opacity=".35"/><rect x="281.8" y="558" width="35.0" height="168.0" rx="3" fill="url(#feintes)"/><rect x="283.8" y="560" width="31.0" height="2" fill="#C6A56A" opacity=".35"/><rect x="391.2" y="558" width="35.0" height="168.0" rx="3" fill="url(#feintes)"/><rect x="393.2" y="560" width="31.0" height="2" fill="#C6A56A" opacity=".35"/><rect x="445.8" y="558" width="35.0" height="168.0" rx="3" fill="url(#feintes)"/><rect x="447.8" y="560" width="31.0" height="2" fill="#C6A56A" opacity=".35"/><rect x="500.5" y="558" width="35.0" height="168.0" rx="3" fill="url(#feintes)"/><rect x="502.5" y="560" width="31.0" height="2" fill="#C6A56A" opacity=".35"/><rect x="609.8" y="558" width="35.0" height="168.0" rx="3" fill="url(#feintes)"/><rect x="611.8" y="560" width="31.0" height="2" fill="#C6A56A" opacity=".35"/><rect x="664.5" y="558" width="35.0" height="168.0" rx="3" fill="url(#feintes)"/><rect x="666.5" y="560" width="31.0" height="2" fill="#C6A56A" opacity=".35"/><rect x="773.8" y="558" width="35.0" height="168.0" rx="3" fill="url(#feintes)"/><rect x="775.8" y="560" width="31.0" height="2" fill="#C6A56A" opacity=".35"/><rect x="828.5" y="558" width="35.0" height="168.0" rx="3" fill="url(#feintes)"/><rect x="830.5" y="560" width="31.0" height="2" fill="#C6A56A" opacity=".35"/><rect x="883.2" y="558" width="35.0" height="168.0" rx="3" fill="url(#feintes)"/><rect x="885.2" y="560" width="31.0" height="2" fill="#C6A56A" opacity=".35"/><rect x="176" y="554" width="848" height="294" rx="6" fill="none" stroke="#C6A56A" stroke-width="1.2" opacity=".35"/><rect x="151.5" y="900" width="57.0" height="280" rx="4" fill="url(#touche)" opacity=".92"/><rect x="151.5" y="1168" width="57.0" height="12" rx="3" fill="#000" opacity=".25"/><rect x="211.5" y="900" width="57.0" height="280" rx="4" fill="url(#touche)" opacity=".92"/><rect x="211.5" y="1168" width="57.0" height="12" rx="3" fill="#000" opacity=".25"/><rect x="271.5" y="900" width="57.0" height="280" rx="4" fill="url(#touche)" opacity=".92"/><rect x="271.5" y="1168" width="57.0" height="12" rx="3" fill="#000" opacity=".25"/><rect x="331.5" y="900" width="57.0" height="280" rx="4" fill="url(#touche)" opacity=".92"/><rect x="331.5" y="1168" width="57.0" height="12" rx="3" fill="#000" opacity=".25"/><rect x="391.5" y="900" width="57.0" height="280" rx="4" fill="url(#touche)" opacity=".92"/><rect x="391.5" y="1168" width="57.0" height="12" rx="3" fill="#000" opacity=".25"/><rect x="451.5" y="900" width="57.0" height="280" rx="4" fill="url(#touche)" opacity=".92"/><rect x="451.5" y="1168" width="57.0" height="12" rx="3" fill="#000" opacity=".25"/><rect x="511.5" y="900" width="57.0" height="280" rx="4" fill="url(#touche)" opacity=".92"/><rect x="511.5" y="1168" width="57.0" height="12" rx="3" fill="#000" opacity=".25"/><rect x="571.5" y="900" width="57.0" height="280" rx="4" fill="url(#touche)" opacity=".92"/><rect x="571.5" y="1168" width="57.0" height="12" rx="3" fill="#000" opacity=".25"/><rect x="631.5" y="900" width="57.0" height="280" rx="4" fill="url(#touche)" opacity=".92"/><rect x="631.5" y="1168" width="57.0" height="12" rx="3" fill="#000" opacity=".25"/><rect x="691.5" y="900" width="57.0" height="280" rx="4" fill="url(#touche)" opacity=".92"/><rect x="691.5" y="1168" width="57.0" height="12" rx="3" fill="#000" opacity=".25"/><rect x="751.5" y="900" width="57.0" height="280" rx="4" fill="url(#touche)" opacity=".92"/><rect x="751.5" y="1168" width="57.0" height="12" rx="3" fill="#000" opacity=".25"/><rect x="811.5" y="900" width="57.0" height="280" rx="4" fill="url(#touche)" opacity=".92"/><rect x="811.5" y="1168" width="57.0" height="12" rx="3" fill="#000" opacity=".25"/><rect x="871.5" y="900" width="57.0" height="280" rx="4" fill="url(#touche)" opacity=".92"/><rect x="871.5" y="1168" width="57.0" height="12" rx="3" fill="#000" opacity=".25"/><rect x="931.5" y="900" width="57.0" height="280" rx="4" fill="url(#touche)" opacity=".92"/><rect x="931.5" y="1168" width="57.0" height="12" rx="3" fill="#000" opacity=".25"/><rect x="991.5" y="900" width="57.0" height="280" rx="4" fill="url(#touche)" opacity=".92"/><rect x="991.5" y="1168" width="57.0" height="12" rx="3" fill="#000" opacity=".25"/><rect x="190.8" y="898" width="38.4" height="168.0" rx="3" fill="url(#feintes)"/><rect x="192.8" y="900" width="34.4" height="2" fill="#C6A56A" opacity=".35"/><rect x="250.8" y="898" width="38.4" height="168.0" rx="3" fill="url(#feintes)"/><rect x="252.8" y="900" width="34.4" height="2" fill="#C6A56A" opacity=".35"/><rect x="370.8" y="898" width="38.4" height="168.0" rx="3" fill="url(#feintes)"/><rect x="372.8" y="900" width="34.4" height="2" fill="#C6A56A" opacity=".35"/><rect x="430.8" y="898" width="38.4" height="168.0" rx="3" fill="url(#feintes)"/><rect x="432.8" y="900" width="34.4" height="2" fill="#C6A56A" opacity=".35"/><rect x="490.8" y="898" width="38.4" height="168.0" rx="3" fill="url(#feintes)"/><rect x="492.8" y="900" width="34.4" height="2" fill="#C6A56A" opacity=".35"/><rect x="610.8" y="898" width="38.4" height="168.0" rx="3" fill="url(#feintes)"/><rect x="612.8" y="900" width="34.4" height="2" fill="#C6A56A" opacity=".35"/><rect x="670.8" y="898" width="38.4" height="168.0" rx="3" fill="url(#feintes)"/><rect x="672.8" y="900" width="34.4" height="2" fill="#C6A56A" opacity=".35"/><rect x="790.8" y="898" width="38.4" height="168.0" rx="3" fill="url(#feintes)"/><rect x="792.8" y="900" width="34.4" height="2" fill="#C6A56A" opacity=".35"/><rect x="850.8" y="898" width="38.4" height="168.0" rx="3" fill="url(#feintes)"/><rect x="852.8" y="900" width="34.4" height="2" fill="#C6A56A" opacity=".35"/><rect x="910.8" y="898" width="38.4" height="168.0" rx="3" fill="url(#feintes)"/><rect x="912.8" y="900" width="34.4" height="2" fill="#C6A56A" opacity=".35"/><rect x="136" y="894" width="928" height="294" rx="6" fill="none" stroke="#C6A56A" stroke-width="1.2" opacity=".35"/><rect x="150" y="440" width="900" height="2" fill="url(#railG)"/></g>

<rect width="1200" height="1500" fill="url(#vignette)"/>
<rect width="1200" height="1500" filter="url(#grain)" opacity=".055"/>
</svg>